<svg width="30" height="30" viewBox="0 0 30 30" fill="none" xmlns="http://www.w3.org/2000/svg">
<rect x="0.499756" y="0.5" width="29" height="29" rx="14.5" fill="white"/>
<path fill-rule="evenodd" clip-rule="evenodd" d="M12.8618 20.8047C13.1221 21.0651 13.5442 21.0651 13.8046 20.8047L19.1379 15.4714C19.3983 15.2111 19.3983 14.7889 19.1379 14.5286L13.8046 9.19526C13.5442 8.93491 13.1221 8.93491 12.8618 9.19526C12.6014 9.45561 12.6014 9.87772 12.8618 10.1381L17.7237 15L12.8618 19.8619C12.6014 20.1223 12.6014 20.5444 12.8618 20.8047Z" fill="#354A5F"/>
<rect x="0.499756" y="0.5" width="29" height="29" rx="14.5" stroke="#E1E1E1"/>
<path fill-rule="evenodd" clip-rule="evenodd" d="M15.5283 20.8047C15.7886 21.0651 16.2107 21.0651 16.4711 20.8047L21.8044 15.4714C22.0648 15.2111 22.0648 14.7889 21.8044 14.5286L16.4711 9.19526C16.2107 8.93491 15.7886 8.93491 15.5283 9.19526C15.2679 9.45561 15.2679 9.87772 15.5283 10.1381L20.3902 15L15.5283 19.8619C15.2679 20.1223 15.2679 20.5444 15.5283 20.8047Z" fill="#354A5F"/>
</svg>
