<svg width="30" height="30" viewBox="0 0 30 30" fill="none" xmlns="http://www.w3.org/2000/svg">
<rect x="29.5" y="29.5" width="29" height="29" rx="14.5" transform="rotate(-180 29.5 29.5)" fill="white"/>
<path fill-rule="evenodd" clip-rule="evenodd" d="M17.138 9.19526C16.8776 8.93491 16.4555 8.93491 16.1952 9.19526L10.8618 14.5286C10.6015 14.7889 10.6015 15.2111 10.8618 15.4714L16.1952 20.8047C16.4555 21.0651 16.8776 21.0651 17.138 20.8047C17.3983 20.5444 17.3983 20.1223 17.138 19.8619L12.2761 15L17.138 10.1381C17.3983 9.87772 17.3983 9.45561 17.138 9.19526Z" fill="#354A5F"/>
<rect x="29.5" y="29.5" width="29" height="29" rx="14.5" transform="rotate(-180 29.5 29.5)" stroke="#E1E1E1"/>
<path fill-rule="evenodd" clip-rule="evenodd" d="M14.4715 9.19526C14.2111 8.93491 13.789 8.93491 13.5287 9.19526L8.19534 14.5286C7.93499 14.7889 7.93499 15.2111 8.19534 15.4714L13.5287 20.8047C13.789 21.0651 14.2111 21.0651 14.4715 20.8047C14.7318 20.5444 14.7318 20.1223 14.4715 19.8619L9.60956 15L14.4715 10.1381C14.7318 9.87772 14.7318 9.45561 14.4715 9.19526Z" fill="#354A5F"/>
</svg>
