<svg width="22" height="22" viewBox="0 0 22 22" fill="none" xmlns="http://www.w3.org/2000/svg">
<path fill-rule="evenodd" clip-rule="evenodd" d="M13.5505 3.83917C13.7809 3.60887 14.1544 3.60896 14.3848 3.83936L18.1604 7.61573C18.271 7.7264 18.3332 7.8765 18.3332 8.03299C18.3331 8.18949 18.271 8.33956 18.1603 8.4502L8.67372 17.9368C8.67371 17.9368 8.67374 17.9367 8.67372 17.9368C8.42006 18.1905 8.07597 18.3331 7.71719 18.3332H4.25654C3.93067 18.3332 3.6665 18.069 3.6665 17.7431V14.2826C3.66658 13.9238 3.80917 13.5796 4.06292 13.326L11.3913 5.99683L13.5505 3.83917ZM15.585 9.35603L16.9087 8.03279L13.9673 5.09088L12.6431 6.41418L15.585 9.35603ZM11.8085 7.24849L4.89731 14.1604C4.86492 14.1928 4.84662 14.2368 4.84658 14.2826C4.84658 14.2826 4.84658 14.2826 4.84658 14.2826V17.1531H7.71694C7.7169 17.1531 7.71698 17.1531 7.71694 17.1531C7.76274 17.1531 7.80678 17.1348 7.83916 17.1024L14.7505 10.1904L11.8085 7.24849Z" fill="white"/>
</svg>
