<svg width="22" height="22" viewBox="0 0 22 22" fill="none" xmlns="http://www.w3.org/2000/svg">
<path fill-rule="evenodd" clip-rule="evenodd" d="M10.9183 2.95712C11.2167 2.68096 11.7003 2.68096 11.9986 2.95712L15.5635 6.25712C15.8618 6.53327 15.8618 6.98101 15.5635 7.25717C15.2651 7.53332 14.7815 7.53332 14.4832 7.25717L12.2224 5.16434V14.7714C12.2224 15.162 11.8804 15.4786 11.4585 15.4786C11.0366 15.4786 10.6946 15.162 10.6946 14.7714V5.16434L8.43383 7.25717C8.13552 7.53332 7.65185 7.53332 7.35353 7.25717C7.05521 6.98101 7.05521 6.53327 7.35353 6.25712L10.9183 2.95712ZM4.5835 18.5429C4.5835 18.1523 4.9255 17.8357 5.34739 17.8357H17.5696C17.9915 17.8357 18.3335 18.1523 18.3335 18.5429C18.3335 18.9334 17.9915 19.25 17.5696 19.25H5.34739C4.9255 19.25 4.5835 18.9334 4.5835 18.5429Z" fill="#0854A0"/>
</svg>
