<svg width="24" height="24" viewBox="0 0 24 24" fill="none" xmlns="http://www.w3.org/2000/svg">
<path d="M11.9805 3C11.9313 3 11.8825 3.00785 11.8358 3.02325L5.83575 4.4295C5.49216 4.51221 5.25 4.81958 5.25 5.17298V19.1411C5.25 19.496 5.50896 19.7978 5.85975 19.8517L11.8597 20.9767C11.9059 20.9921 11.9543 21 12.003 21H12.5C13.0523 21 13.5 20.5523 13.5 20V4C13.5 3.44772 13.0523 3 12.5 3H11.9805ZM15.75 4.5C15.3358 4.5 15 4.83579 15 5.25C15 5.66421 15.3358 6 15.75 6H16.25C16.8023 6 17.25 6.44772 17.25 7V17C17.25 17.5523 16.8023 18 16.25 18H15.75C15.3358 18 15 18.3358 15 18.75C15 19.1642 15.3358 19.5 15.75 19.5H17.75C18.3023 19.5 18.75 19.0523 18.75 18.5V5.5C18.75 4.94772 18.3023 4.5 17.75 4.5H15.75ZM10.7737 4.80809C11.4007 4.66245 12 5.13848 12 5.78216V18.295C12 18.9212 11.4311 19.3933 10.8156 19.2778L7.56564 18.6682C7.0927 18.5795 6.75 18.1666 6.75 17.6854V6.53709C6.75 6.07197 7.07068 5.66826 7.52374 5.56302L10.7737 4.80809ZM10.758 11.25C10.4827 11.25 10.242 11.5875 10.242 12C10.242 12.4125 10.482 12.75 10.758 12.75C11.0332 12.75 11.25 12.4125 11.25 12C11.25 11.5875 11.0325 11.25 10.758 11.25Z" fill="#E5E5E5"/>
</svg>
