<svg width="24" height="24" viewBox="0 0 24 24" fill="none" xmlns="http://www.w3.org/2000/svg">
<path fill-rule="evenodd" clip-rule="evenodd" d="M18.6667 4.30769H16.6667V3.65385C16.6667 3.48044 16.5964 3.31413 16.4714 3.19151C16.3464 3.06889 16.1768 3 16 3C15.8232 3 15.6536 3.06889 15.5286 3.19151C15.4036 3.31413 15.3333 3.48044 15.3333 3.65385V4.30769H8.66667V3.65385C8.66667 3.48044 8.59643 3.31413 8.4714 3.19151C8.34638 3.06889 8.17681 3 8 3C7.82319 3 7.65362 3.06889 7.5286 3.19151C7.40357 3.31413 7.33333 3.48044 7.33333 3.65385V4.30769H5.33333C4.97971 4.30769 4.64057 4.44547 4.39052 4.69071C4.14048 4.93595 4 5.26856 4 5.61538V18.6923C4 19.0391 4.14048 19.3717 4.39052 19.617C4.64057 19.8622 4.97971 20 5.33333 20H18.6667C19.0203 20 19.3594 19.8622 19.6095 19.617C19.8595 19.3717 20 19.0391 20 18.6923V5.61538C20 5.26856 19.8595 4.93595 19.6095 4.69071C19.3594 4.44547 19.0203 4.30769 18.6667 4.30769ZM7.33333 5.61538V6.26923C7.33333 6.44264 7.40357 6.60895 7.5286 6.73157C7.65362 6.85419 7.82319 6.92308 8 6.92308C8.17681 6.92308 8.34638 6.85419 8.4714 6.73157C8.59643 6.60895 8.66667 6.44264 8.66667 6.26923V5.61538H15.3333V6.26923C15.3333 6.44264 15.4036 6.60895 15.5286 6.73157C15.6536 6.85419 15.8232 6.92308 16 6.92308C16.1768 6.92308 16.3464 6.85419 16.4714 6.73157C16.5964 6.60895 16.6667 6.44264 16.6667 6.26923V5.61538H18.6667V8.23077H5.33333V5.61538H7.33333ZM5.33333 18.6923V9.53846H18.6667V18.6923H5.33333ZM7 12C7 11.4477 7.44772 11 8 11C8.55228 11 9 11.4477 9 12C9 12.5523 8.55228 13 8 13C7.44772 13 7 12.5523 7 12ZM8 15C7.44772 15 7 15.4477 7 16C7 16.5523 7.44772 17 8 17C8.55228 17 9 16.5523 9 16C9 15.4477 8.55228 15 8 15ZM11 12C11 11.4477 11.4477 11 12 11C12.5523 11 13 11.4477 13 12C13 12.5523 12.5523 13 12 13C11.4477 13 11 12.5523 11 12ZM12 15C11.4477 15 11 15.4477 11 16C11 16.5523 11.4477 17 12 17C12.5523 17 13 16.5523 13 16C13 15.4477 12.5523 15 12 15ZM15 12C15 11.4477 15.4477 11 16 11C16.5523 11 17 11.4477 17 12C17 12.5523 16.5523 13 16 13C15.4477 13 15 12.5523 15 12ZM16 15C15.4477 15 15 15.4477 15 16C15 16.5523 15.4477 17 16 17C16.5523 17 17 16.5523 17 16C17 15.4477 16.5523 15 16 15Z" fill="#A4A4A4"/>
</svg>
