<svg width="24" height="24" viewBox="0 0 24 24" fill="none" xmlns="http://www.w3.org/2000/svg">
<path d="M20.5031 20.5031C20.7775 20.2287 20.7775 19.7838 20.5031 19.5094L16.6927 15.6989C17.968 14.1678 18.604 12.2039 18.4683 10.2158C18.3326 8.22774 17.4357 6.3685 15.9641 5.02488C14.4924 3.68127 12.5595 2.95673 10.5673 3.002C8.57505 3.04727 6.67699 3.85885 5.26792 5.26792C3.85885 6.67699 3.04727 8.57505 3.002 10.5673C2.95673 12.5595 3.68127 14.4924 5.02488 15.9641C6.3685 17.4357 8.22774 18.3326 10.2158 18.4683C12.2039 18.604 14.1678 17.968 15.6989 16.6927L19.5094 20.5031C19.7838 20.7775 20.2287 20.7775 20.5031 20.5031ZM4.43068 10.7556C4.43068 9.50467 4.80163 8.28181 5.49662 7.24168C6.19162 6.20154 7.17944 5.39086 8.33518 4.91214C9.49091 4.43341 10.7626 4.30816 11.9896 4.55221C13.2165 4.79626 14.3435 5.39865 15.2281 6.28321C16.1126 7.16777 16.715 8.29477 16.9591 9.5217C17.2031 10.7486 17.0779 12.0204 16.5991 13.1761C16.1204 14.3318 15.3097 15.3196 14.2696 16.0146C13.2295 16.7096 12.0066 17.0806 10.7556 17.0806C9.07872 17.0787 7.47102 16.4118 6.28527 15.226C5.09951 14.0402 4.43254 12.4325 4.43068 10.7556Z" fill="#4B4E51"/>
</svg>
