<svg width="22" height="22" viewBox="0 0 22 22" fill="none" xmlns="http://www.w3.org/2000/svg">
<path fill-rule="evenodd" clip-rule="evenodd" d="M11.4585 2.75C11.8804 2.75 12.2224 3.0666 12.2224 3.45714V13.0642L14.4832 10.9714C14.7815 10.6952 15.2651 10.6952 15.5635 10.9714C15.8618 11.2476 15.8618 11.6953 15.5635 11.9715L11.9986 15.2715C11.7003 15.5476 11.2167 15.5476 10.9183 15.2715L7.35353 11.9715C7.05521 11.6953 7.05521 11.2476 7.35353 10.9714C7.65185 10.6952 8.13551 10.6952 8.43383 10.9714L10.6946 13.0642V3.45714C10.6946 3.0666 11.0366 2.75 11.4585 2.75ZM4.5835 18.5429C4.5835 18.1523 4.9255 17.8357 5.34738 17.8357H17.5696C17.9915 17.8357 18.3335 18.1523 18.3335 18.5429C18.3335 18.9334 17.9915 19.25 17.5696 19.25H5.34738C4.9255 19.25 4.5835 18.9334 4.5835 18.5429Z" fill="#0854A0"/>
</svg>
