<svg width="24" height="24" viewBox="0 0 24 24" fill="none" xmlns="http://www.w3.org/2000/svg">
<path fill-rule="evenodd" clip-rule="evenodd" d="M4.4 12C4.4 7.80445 7.80445 4.4 12 4.4C16.1956 4.4 19.6 7.80445 19.6 12C19.6 16.1956 16.1956 19.6 12 19.6C7.80445 19.6 4.4 16.1956 4.4 12ZM12 3C7.03125 3 3 7.03125 3 12C3 16.9688 7.03125 21 12 21C16.9688 21 21 16.9688 21 12C21 7.03125 16.9688 3 12 3ZM11.7 7C11.7 6.6134 11.3866 6.3 11 6.3C10.6134 6.3 10.3 6.6134 10.3 7V13.75C10.3 14.1366 10.6134 14.45 11 14.45H15.5C15.8866 14.45 16.2 14.1366 16.2 13.75C16.2 13.3634 15.8866 13.05 15.5 13.05H11.7V7Z" fill="#A4A4A4"/>
</svg>
