<svg width="898" height="932" viewBox="0 0 898 932" fill="none" xmlns="http://www.w3.org/2000/svg">
<g filter="url(#filter0_d_82_1230)">
<rect opacity="0.0526316" x="1412.9" y="1247.91" width="1108.62" height="930.277" transform="rotate(178.353 1412.9 1247.91)" fill="#0854A0" stroke="#81ACD8" stroke-width="0.0263158"/>
<rect opacity="0.105263" x="1411.05" y="1271.24" width="1108.6" height="930.25" transform="rotate(179.353 1411.05 1271.24)" fill="#0854A0" stroke="#81ACD8" stroke-width="0.0526316"/>
<rect opacity="0.157895" x="1409.03" y="1294.43" width="1108.57" height="930.224" transform="rotate(-179.647 1409.03 1294.43)" fill="#0854A0" stroke="#81ACD8" stroke-width="0.0789474"/>
<rect opacity="0.210526" x="1406.84" y="1317.47" width="1108.55" height="930.198" transform="rotate(-178.647 1406.84 1317.47)" fill="#0854A0" stroke="#81ACD8" stroke-width="0.105263"/>
<rect opacity="0.263158" x="1404.48" y="1340.37" width="1108.52" height="930.171" transform="rotate(-177.647 1404.48 1340.37)" fill="#0854A0" stroke="#81ACD8" stroke-width="0.131579"/>
<rect opacity="0.315789" x="1401.97" y="1363.12" width="1108.49" height="930.145" transform="rotate(-176.647 1401.97 1363.12)" fill="#0854A0" stroke="#81ACD8" stroke-width="0.157895"/>
<rect opacity="0.368421" x="1399.29" y="1385.72" width="1108.47" height="930.119" transform="rotate(-175.647 1399.29 1385.72)" fill="#0854A0" stroke="#81ACD8" stroke-width="0.184211"/>
<rect opacity="0.421053" x="1396.46" y="1408.16" width="1108.44" height="930.092" transform="rotate(-174.647 1396.46 1408.16)" fill="#0854A0" stroke="#81ACD8" stroke-width="0.210526"/>
<rect opacity="0.473684" x="1393.47" y="1430.45" width="1108.41" height="930.066" transform="rotate(-173.647 1393.47 1430.45)" fill="#0854A0" stroke="#81ACD8" stroke-width="0.236842"/>
<rect opacity="0.526316" x="1390.33" y="1452.58" width="1108.39" height="930.04" transform="rotate(-172.647 1390.33 1452.58)" fill="#0854A0" stroke="#81ACD8" stroke-width="0.263158"/>
<rect opacity="0.578947" x="1387.04" y="1474.54" width="1108.36" height="930.013" transform="rotate(-171.647 1387.04 1474.54)" fill="#0854A0" stroke="#81ACD8" stroke-width="0.289474"/>
<rect opacity="0.631579" x="1383.6" y="1496.34" width="1108.34" height="929.987" transform="rotate(-170.647 1383.6 1496.34)" fill="#0854A0" stroke="#81ACD8" stroke-width="0.315789"/>
<rect opacity="0.684211" x="1380.03" y="1517.97" width="1108.31" height="929.961" transform="rotate(-169.647 1380.03 1517.97)" fill="#0854A0" stroke="#81ACD8" stroke-width="0.342105"/>
<rect opacity="0.736842" x="1376.31" y="1539.43" width="1108.28" height="929.935" transform="rotate(-168.647 1376.31 1539.43)" fill="#0854A0" stroke="#81ACD8" stroke-width="0.368421"/>
<rect opacity="0.789474" x="1372.45" y="1560.72" width="1108.26" height="929.908" transform="rotate(-167.647 1372.45 1560.72)" fill="#0854A0" stroke="#81ACD8" stroke-width="0.394737"/>
<rect opacity="0.842105" x="1368.46" y="1581.84" width="1108.23" height="929.882" transform="rotate(-166.647 1368.46 1581.84)" fill="#0854A0" stroke="#81ACD8" stroke-width="0.421053"/>
<rect opacity="0.894737" x="1364.35" y="1602.78" width="1108.2" height="929.855" transform="rotate(-165.647 1364.35 1602.78)" fill="#0854A0" stroke="#81ACD8" stroke-width="0.447368"/>
<rect opacity="0.947368" x="1360.1" y="1623.53" width="1108.18" height="929.829" transform="rotate(-164.647 1360.1 1623.53)" fill="#0854A0" stroke="#81ACD8" stroke-width="0.473684"/>
<rect x="1355.73" y="1644.11" width="1108.15" height="929.803" transform="rotate(-163.647 1355.73 1644.11)" fill="#0854A0" stroke="#81ACD8" stroke-width="0.5"/>
</g>
<defs>
<filter id="filter0_d_82_1230" x="273.98" y="318.004" width="1347.84" height="1334.42" filterUnits="userSpaceOnUse" color-interpolation-filters="sRGB">
<feFlood flood-opacity="0" result="BackgroundImageFix"/>
<feColorMatrix in="SourceAlpha" type="matrix" values="0 0 0 0 0 0 0 0 0 0 0 0 0 0 0 0 0 0 127 0" result="hardAlpha"/>
<feOffset dy="4"/>
<feGaussianBlur stdDeviation="2"/>
<feComposite in2="hardAlpha" operator="out"/>
<feColorMatrix type="matrix" values="0 0 0 0 0 0 0 0 0 0 0 0 0 0 0 0 0 0 0.25 0"/>
<feBlend mode="normal" in2="BackgroundImageFix" result="effect1_dropShadow_82_1230"/>
<feBlend mode="normal" in="SourceGraphic" in2="effect1_dropShadow_82_1230" result="shape"/>
</filter>
</defs>
</svg>
