<svg width="1486" height="1080" viewBox="0 0 1486 1080" fill="none" xmlns="http://www.w3.org/2000/svg">
<rect opacity="0.0526316" x="-63.6331" y="199.264" width="1108.62" height="930.277" transform="rotate(-33.5839 -63.6331 199.264)" fill="#0854A0" stroke="#81ACD8" stroke-width="0.0263158"/>
<rect opacity="0.105263" x="-74.4012" y="178.487" width="1108.6" height="930.25" transform="rotate(-32.5839 -74.4012 178.487)" fill="#0854A0" stroke="#81ACD8" stroke-width="0.0526316"/>
<rect opacity="0.157895" x="-84.9506" y="157.74" width="1108.57" height="930.224" transform="rotate(-31.5839 -84.9506 157.74)" fill="#0854A0" stroke="#81ACD8" stroke-width="0.0789474"/>
<rect opacity="0.210526" x="-95.2834" y="137.024" width="1108.55" height="930.198" transform="rotate(-30.5839 -95.2834 137.024)" fill="#0854A0" stroke="#81ACD8" stroke-width="0.105263"/>
<rect opacity="0.263158" x="-105.399" y="116.346" width="1108.52" height="930.171" transform="rotate(-29.5839 -105.399 116.346)" fill="#0854A0" stroke="#81ACD8" stroke-width="0.131579"/>
<rect opacity="0.315789" x="-115.296" y="95.7073" width="1108.49" height="930.145" transform="rotate(-28.5839 -115.296 95.7073)" fill="#0854A0" stroke="#81ACD8" stroke-width="0.157895"/>
<rect opacity="0.368421" x="-124.979" y="75.1142" width="1108.47" height="930.119" transform="rotate(-27.5839 -124.979 75.1142)" fill="#0854A0" stroke="#81ACD8" stroke-width="0.184211"/>
<rect opacity="0.421053" x="-134.447" y="54.5685" width="1108.44" height="930.092" transform="rotate(-26.5839 -134.447 54.5685)" fill="#0854A0" stroke="#81ACD8" stroke-width="0.210526"/>
<rect opacity="0.473684" x="-143.699" y="34.0742" width="1108.41" height="930.066" transform="rotate(-25.5839 -143.699 34.0742)" fill="#0854A0" stroke="#81ACD8" stroke-width="0.236842"/>
<rect opacity="0.526316" x="-152.74" y="13.6352" width="1108.39" height="930.04" transform="rotate(-24.5839 -152.74 13.6352)" fill="#0854A0" stroke="#81ACD8" stroke-width="0.263158"/>
<rect opacity="0.578947" x="-161.567" y="-6.74362" width="1108.36" height="930.013" transform="rotate(-23.5839 -161.567 -6.74362)" fill="#0854A0" stroke="#81ACD8" stroke-width="0.289474"/>
<rect opacity="0.631579" x="-170.184" y="-27.0604" width="1108.34" height="929.987" transform="rotate(-22.5839 -170.184 -27.0604)" fill="#0854A0" stroke="#81ACD8" stroke-width="0.315789"/>
<rect opacity="0.684211" x="-178.591" y="-47.3101" width="1108.31" height="929.961" transform="rotate(-21.5839 -178.591 -47.3101)" fill="#0854A0" stroke="#81ACD8" stroke-width="0.342105"/>
<rect opacity="0.736842" x="-186.788" y="-67.49" width="1108.28" height="929.934" transform="rotate(-20.5839 -186.788 -67.49)" fill="#0854A0" stroke="#81ACD8" stroke-width="0.368421"/>
<rect opacity="0.789474" x="-194.779" y="-87.596" width="1108.26" height="929.908" transform="rotate(-19.5839 -194.779 -87.596)" fill="#0854A0" stroke="#81ACD8" stroke-width="0.394737"/>
<rect opacity="0.842105" x="-202.563" y="-107.624" width="1108.23" height="929.882" transform="rotate(-18.5839 -202.563 -107.624)" fill="#0854A0" stroke="#81ACD8" stroke-width="0.421053"/>
<rect opacity="0.894737" x="-210.142" y="-127.572" width="1108.2" height="929.856" transform="rotate(-17.5839 -210.142 -127.572)" fill="#0854A0" stroke="#81ACD8" stroke-width="0.447368"/>
<rect opacity="0.947368" x="-217.518" y="-147.434" width="1108.18" height="929.829" transform="rotate(-16.5839 -217.518 -147.434)" fill="#0854A0" stroke="#81ACD8" stroke-width="0.473684"/>
<rect x="-224.692" y="-167.209" width="1108.15" height="929.803" transform="rotate(-15.5839 -224.692 -167.209)" fill="#0854A0" stroke="#81ACD8" stroke-width="0.5"/>
</svg>
